<svg version="1.0" xmlns="http://www.w3.org/2000/svg"
width="500.000000pt" height="500.000000pt" viewBox="0 0 500.000000 500.000000"
preserveAspectRatio="xMidYMid meet">

<g transform="translate(0.000000,500.000000) scale(0.100000,-0.100000)"
fill="#000000" stroke="none">
<path d="M2031 2890 c-71 -17 -118 -99 -101 -176 15 -66 72 -106 151 -106 63
1 104 26 129 77 25 52 25 86 1 133 -31 60 -105 89 -180 72z m98 -96 c12 -15
21 -34 21 -44 0 -30 -39 -70 -69 -70 -44 0 -71 26 -71 67 0 47 24 73 66 73 23
0 38 -7 53 -26z"/>
<path d="M3007 2890 c-38 -12 -54 -26 -62 -57 -12 -49 11 -80 79 -106 65 -25
81 -50 33 -55 -18 -2 -29 2 -33 12 -9 22 -84 22 -84 0 0 -26 56 -74 87 -75
103 -4 156 39 132 108 -11 33 -31 47 -88 63 -44 12 -63 36 -40 51 20 13 27 11
46 -11 18 -21 83 -29 83 -10 0 19 -22 56 -39 67 -27 17 -82 23 -114 13z"/>
<path d="M3695 2891 c-48 -12 -74 -33 -95 -77 -24 -48 -25 -73 -6 -117 30 -70
98 -102 181 -84 114 24 149 167 60 246 -20 17 -43 31 -53 31 -9 0 -26 2 -37 4
-11 3 -33 1 -50 -3z m90 -91 c42 -47 8 -120 -55 -120 -31 0 -70 39 -70 70 0
10 9 29 21 44 26 33 77 36 104 6z"/>
<path d="M750 2750 l0 -140 40 0 40 0 0 140 0 140 -40 0 -40 0 0 -140z"/>
<path d="M910 2856 c0 -34 1 -35 43 -38 l42 -3 3 -102 3 -103 39 0 40 0 0 105
0 105 40 0 c39 0 40 1 40 35 l0 35 -125 0 -125 0 0 -34z"/>
<path d="M1275 2759 c-27 -72 -51 -135 -53 -140 -2 -5 15 -9 37 -9 30 0 43 5
51 20 8 16 21 20 59 20 40 0 50 -3 54 -20 4 -16 14 -20 46 -20 23 0 41 3 41 7
0 3 -23 66 -52 140 l-51 133 -41 0 -41 0 -50 -131z m99 -47 c-35 -5 -38 1 -23
45 l12 38 18 -40 18 -40 -25 -3z"/>
<path d="M1590 2750 l0 -140 78 0 c126 0 186 45 186 140 0 95 -60 140 -186
140 l-78 0 0 -140z m158 54 c16 -11 22 -25 22 -53 0 -45 -14 -60 -64 -68 l-36
-6 0 72 c0 71 0 71 28 71 15 0 38 -7 50 -16z"/>
<path d="M2310 2750 l0 -140 40 0 40 0 0 40 c0 32 4 40 18 40 12 0 25 -14 37
-40 17 -38 20 -40 62 -40 23 0 43 3 43 8 0 4 -9 22 -21 41 l-20 34 22 41 c17
33 20 51 15 80 -11 56 -50 76 -153 76 l-83 0 0 -140z m134 70 c48 -18 23 -70
-33 -70 -17 0 -21 6 -21 33 0 49 9 55 54 37z"/>
<path d="M2640 2750 l0 -140 40 0 40 0 0 140 0 140 -40 0 -40 0 0 -140z"/>
<path d="M3250 2750 l0 -140 40 0 40 0 0 55 0 55 45 0 45 0 0 -55 0 -55 40 0
40 0 0 140 0 140 -40 0 -40 0 0 -50 0 -50 -45 0 -45 0 0 50 0 50 -40 0 -40 0
0 -140z"/>
<path d="M3970 2751 l0 -141 40 0 c39 0 40 1 40 35 0 34 1 35 38 35 52 0 84
19 105 63 23 45 16 85 -19 118 -22 21 -37 24 -115 27 l-89 4 0 -141z m149 51
c14 -27 -5 -52 -39 -52 -28 0 -30 3 -30 35 0 32 2 35 30 35 18 0 33 -7 39 -18z"/>
</g>
</svg>
