
<svg version="1.0" xmlns="http://www.w3.org/2000/svg"
width="500.000000pt" height="500.000000pt" viewBox="0 0 500.000000 500.000000"
preserveAspectRatio="xMidYMid meet">

<g transform="translate(0.000000,500.000000) scale(0.100000,-0.100000)"
fill="#000000" stroke="none">
<path d="M2850 3095 c0 -20 -5 -25 -25 -25 -16 0 -46 -20 -89 -61 -85 -79
-101 -119 -93 -237 9 -140 66 -293 161 -435 l46 -67 0 -174 0 -173 -218 -7
c-142 -5 -227 -3 -245 3 -31 12 -35 2 -9 -22 17 -15 58 -17 384 -17 359 0 366
0 434 24 102 35 140 53 211 98 49 31 69 51 88 89 49 96 32 144 -88 247 -134
115 -149 120 -224 76 l-45 -26 -36 42 c-35 39 -142 205 -142 219 0 4 16 15 36
26 48 26 74 61 74 99 0 38 -52 241 -70 276 -28 54 -51 70 -102 70 -45 0 -48
-2 -48 -25z m-163 -322 l1 -78 -10 64 c-8 56 -6 91 5 91 1 0 3 -35 4 -77z m21
-143 c0 -9 -3 -7 -8 5 -5 11 -8 29 -8 40 0 16 2 15 8 -5 4 -14 8 -32 8 -40z
m42 -115 c0 -5 -5 -3 -10 5 -5 8 -10 20 -10 25 0 6 5 3 10 -5 5 -8 10 -19 10
-25z"/>
<path d="M1917 3037 c-4 -16 -18 -32 -33 -37 -34 -13 -140 -13 -165 0 -24 13
-25 -2 -1 -23 14 -13 38 -17 99 -17 94 0 117 15 111 72 l-3 33 -8 -28z"/>
<path d="M1980 2999 c7 -13 18 -27 24 -31 6 -4 117 -8 246 -8 184 0 241 -3
263 -14 32 -17 36 -5 7 24 -19 19 -33 20 -263 20 -208 0 -246 2 -266 16 -23
16 -23 16 -11 -7z"/>
<path d="M2063 2753 l-20 -28 -248 -3 c-147 -2 -259 1 -276 7 -33 11 -37 2
-11 -22 16 -15 51 -17 280 -17 249 0 263 1 282 20 11 11 20 31 20 45 0 31 -1
31 -27 -2z"/>
<path d="M2140 2732 c0 -5 8 -16 18 -25 15 -14 41 -17 146 -17 70 0 136 -5
147 -10 23 -13 26 2 3 24 -12 13 -41 16 -145 16 -72 0 -139 5 -150 10 -10 6
-19 7 -19 2z"/>
<path d="M1990 2490 c-15 -28 -54 -42 -85 -30 -29 11 -33 0 -7 -23 41 -37 112
-6 112 48 0 30 -6 32 -20 5z"/>
<path d="M2057 2454 c11 -30 45 -34 290 -34 209 0 252 -2 271 -16 26 -18 29
-8 6 24 -15 22 -18 22 -269 22 -139 0 -265 4 -279 10 -20 7 -24 6 -19 -6z"/>
<path d="M2144 2215 l-19 -25 -218 -1 c-159 -1 -221 2 -232 11 -12 10 -15 9
-15 -3 0 -9 10 -23 22 -31 19 -13 59 -16 235 -16 200 0 214 1 233 20 11 11 20
31 20 45 0 31 -1 31 -26 0z"/>
<path d="M2220 2202 c0 -7 9 -21 20 -32 19 -19 33 -20 243 -20 158 0 226 -3
235 -12 6 -6 15 -8 19 -4 5 4 -5 19 -20 32 -28 24 -30 24 -251 24 -159 0 -225
3 -234 12 -9 9 -12 9 -12 0z"/>
<path d="M2248 1950 c-17 -30 -18 -30 -101 -30 -51 0 -88 5 -95 12 -7 7 -12 8
-12 2 0 -6 10 -20 23 -32 19 -18 35 -22 94 -22 87 0 116 18 111 68 l-3 32 -17
-30z"/>
</g>
</svg>
